<svg width="218" height="34" viewBox="0 0 218 34" fill="none" xmlns="http://www.w3.org/2000/svg">
<path d="M0.176 33L9.776 2.328H16.064L25.688 33H21.656L13.232 5.016H12.632L4.208 33H0.176ZM5.936 23.952V20.64H19.904V23.952H5.936ZM37.0835 33.504C34.2675 33.504 32.1235 32.632 30.6515 30.888C29.1795 29.144 28.4435 26.6 28.4435 23.256V19.392C28.4435 16.032 29.1875 13.472 30.6755 11.712C32.1635 9.936 34.3555 9.048 37.2515 9.048C38.6915 9.048 39.9395 9.296 40.9955 9.792C42.0515 10.272 42.9075 10.952 43.5635 11.832C44.2195 12.712 44.6595 13.752 44.8835 14.952H46.1555L45.0035 18.528C44.9555 17.152 44.6435 16 44.0675 15.072C43.5075 14.128 42.7395 13.416 41.7635 12.936C40.8035 12.456 39.6995 12.216 38.4515 12.216C36.4675 12.216 34.9475 12.792 33.8915 13.944C32.8515 15.096 32.3315 16.792 32.3315 19.032V23.496C32.3315 25.704 32.8515 27.384 33.8915 28.536C34.9475 29.688 36.4675 30.264 38.4515 30.264C39.6355 30.264 40.6835 30.04 41.5955 29.592C42.5075 29.128 43.2595 28.496 43.8515 27.696C44.4595 26.88 44.8755 25.96 45.0995 24.936L46.0595 27.72H44.9075C44.6835 28.776 44.2515 29.744 43.6115 30.624C42.9875 31.504 42.1395 32.208 41.0675 32.736C40.0115 33.248 38.6835 33.504 37.0835 33.504ZM44.9075 33L45.0755 27.336L45.0035 26.088V16.296L45.0275 15.48L44.9315 8.832V1.2H48.7955V33H44.9075ZM84.3928 33V18.336C84.3928 17.104 84.2328 16.04 83.9128 15.144C83.6088 14.232 83.0968 13.528 82.3768 13.032C81.6728 12.536 80.7208 12.288 79.5208 12.288C78.3848 12.288 77.4008 12.52 76.5688 12.984C75.7368 13.448 75.0648 14.072 74.5528 14.856C74.0408 15.624 73.6808 16.504 73.4728 17.496L72.8728 14.736H73.3528C73.6088 13.728 74.0408 12.792 74.6488 11.928C75.2568 11.064 76.0808 10.368 77.1208 9.84C78.1608 9.312 79.4488 9.048 80.9848 9.048C82.7288 9.048 84.1288 9.392 85.1848 10.08C86.2568 10.768 87.0408 11.776 87.5368 13.104C88.0328 14.416 88.2808 16.016 88.2808 17.904V33H84.3928ZM55.1367 33V9.576H59.0247L58.8568 15.192L59.0247 15.432V33H55.1367ZM69.7768 33V18.336C69.7768 17.104 69.6168 16.04 69.2968 15.144C68.9928 14.232 68.4888 13.528 67.7848 13.032C67.0808 12.536 66.1288 12.288 64.9288 12.288C63.7768 12.288 62.7848 12.52 61.9528 12.984C61.1208 13.448 60.4488 14.08 59.9368 14.88C59.4248 15.664 59.0648 16.56 58.8568 17.568L58.1367 14.808H59.0008C59.2408 13.752 59.6568 12.792 60.2488 11.928C60.8408 11.048 61.6408 10.352 62.6488 9.84C63.6728 9.312 64.9128 9.048 66.3688 9.048C68.5288 9.048 70.1688 9.608 71.2888 10.728C72.4248 11.848 73.1368 13.48 73.4248 15.624C73.5048 15.944 73.5608 16.296 73.5928 16.68C73.6248 17.048 73.6408 17.416 73.6408 17.784V33H69.7768ZM94.3963 33V9.576H98.2843V33H94.3963ZM96.3403 5.736C95.5403 5.736 94.9403 5.528 94.5403 5.112C94.1563 4.68 93.9643 4.096 93.9643 3.36V3.24C93.9643 2.488 94.1563 1.904 94.5403 1.488C94.9403 1.072 95.5403 0.863997 96.3403 0.863997C97.1403 0.863997 97.7403 1.072 98.1403 1.488C98.5403 1.904 98.7403 2.488 98.7403 3.24V3.36C98.7403 4.112 98.5403 4.696 98.1403 5.112C97.7403 5.528 97.1403 5.736 96.3403 5.736ZM120.403 33V18.432C120.403 17.168 120.227 16.08 119.875 15.168C119.539 14.256 118.979 13.552 118.195 13.056C117.427 12.544 116.371 12.288 115.027 12.288C113.795 12.288 112.723 12.52 111.811 12.984C110.915 13.448 110.187 14.08 109.627 14.88C109.067 15.664 108.675 16.56 108.451 17.568L107.755 14.808H108.595C108.851 13.752 109.299 12.792 109.939 11.928C110.579 11.048 111.435 10.352 112.507 9.84C113.595 9.312 114.923 9.048 116.491 9.048C118.347 9.048 119.843 9.4 120.979 10.104C122.131 10.808 122.971 11.824 123.499 13.152C124.027 14.464 124.291 16.08 124.291 18V33H120.403ZM104.73 33V9.576H108.618L108.451 15.192L108.618 15.408V33H104.73ZM145.874 33H141.89V2.328H145.874V33ZM164.402 33H160.418V2.328H164.402V33ZM144.17 15.504H162.002V18.864H144.17V15.504ZM174.775 9.576V24.144C174.775 25.376 174.943 26.456 175.279 27.384C175.631 28.296 176.199 29.008 176.983 29.52C177.767 30.016 178.823 30.264 180.151 30.264C181.399 30.264 182.471 30.04 183.367 29.592C184.263 29.128 184.991 28.496 185.551 27.696C186.127 26.896 186.519 25.992 186.727 24.984L187.423 27.744H186.583C186.343 28.8 185.903 29.768 185.263 30.648C184.623 31.512 183.759 32.208 182.671 32.736C181.599 33.248 180.271 33.504 178.687 33.504C176.847 33.504 175.351 33.16 174.199 32.472C173.063 31.768 172.231 30.752 171.703 29.424C171.175 28.08 170.911 26.464 170.911 24.576V9.576H174.775ZM190.447 9.576V33H186.559L186.727 27.384L186.559 27.144V9.576H190.447ZM208.337 33.504C206.897 33.504 205.641 33.264 204.569 32.784C203.513 32.304 202.657 31.616 202.001 30.72C201.345 29.824 200.905 28.784 200.681 27.6H199.385L200.561 23.952C200.641 25.36 200.969 26.536 201.545 27.48C202.137 28.408 202.921 29.104 203.897 29.568C204.873 30.032 205.977 30.264 207.209 30.264C209.161 30.264 210.649 29.688 211.673 28.536C212.713 27.384 213.233 25.672 213.233 23.4V19.008C213.233 16.784 212.713 15.096 211.673 13.944C210.633 12.792 209.121 12.216 207.137 12.216C205.953 12.216 204.905 12.448 203.993 12.912C203.081 13.376 202.321 14.008 201.713 14.808C201.121 15.608 200.713 16.52 200.489 17.544L199.601 14.832H200.705C200.945 13.76 201.369 12.792 201.977 11.928C202.601 11.048 203.449 10.352 204.521 9.84C205.593 9.312 206.921 9.048 208.505 9.048C211.321 9.048 213.465 9.928 214.937 11.688C216.409 13.432 217.145 15.968 217.145 19.296V23.184C217.145 26.544 216.393 29.104 214.889 30.864C213.401 32.624 211.217 33.504 208.337 33.504ZM196.793 33V1.2H200.657V8.832L200.537 15.552L200.561 16.296V26.088L200.513 27.336L200.681 33H196.793Z" fill="#323233"/>
</svg>
